<svg width="16" height="16" viewBox="0 0 16 16" fill="none" xmlns="http://www.w3.org/2000/svg">
<path d="M16 4.5C16 4.77614 15.7761 5 15.5 5H0.5C0.223858 5 0 4.77614 0 4.5V4.5C0 4.22386 0.223858 4 0.5 4H15.5C15.7761 4 16 4.22386 16 4.5V4.5ZM16 12.5C16 12.7761 15.7761 13 15.5 13H0.5C0.223858 13 0 12.7761 0 12.5V12.5C0 12.2239 0.223858 12 0.5 12H15.5C15.7761 12 16 12.2239 16 12.5V12.5ZM16 8.496C16 8.76993 15.7779 8.992 15.504 8.992H0.496C0.222067 8.992 0 8.76993 0 8.496V8.496C0 8.22207 0.222067 8 0.496 8H15.504C15.7779 8 16 8.22207 16 8.496V8.496Z" fill="white"/>
</svg>
