<svg width="87" height="18" viewBox="0 0 87 18" fill="none" xmlns="http://www.w3.org/2000/svg">
<path d="M14.1077 6.0455C14.0758 5.98663 14.0338 5.92869 13.9464 5.88444L12.6979 5.16313C12.6806 5.15319 12.6622 5.14569 12.6424 5.14063C12.6364 5.13913 12.6302 5.13913 12.6234 5.13819C12.6105 5.13594 12.5975 5.13369 12.5846 5.13369H12.5822V5.13425C12.545 5.13482 12.5089 5.14475 12.4768 5.16313L9.66749 6.78594L9.66505 6.78107L9.43836 6.91232C9.1648 7.07 8.82861 7.07 8.55505 6.91232L7.32692 6.20319C7.25886 6.16363 7.21686 6.09069 7.21686 6.01175C7.21686 5.93282 7.25886 5.85988 7.32692 5.82032L8.55505 5.11157C8.82861 4.95369 9.1648 4.95369 9.43836 5.11157L9.73405 5.28219C9.8023 5.32157 9.88611 5.32157 9.95455 5.28219L11.0983 4.62182C11.1667 4.58244 11.2085 4.5095 11.2085 4.43057C11.2085 4.35163 11.1667 4.27869 11.0983 4.23932L9.43836 3.28025C9.1648 3.12257 8.82861 3.12257 8.55505 3.28025L4.48855 5.62925C4.19417 5.79932 4.19417 6.224 4.48855 6.39407L8.55505 8.74307C8.82861 8.90075 9.1648 8.90075 9.43836 8.74307L12.5822 6.92713V11.0636L11.5719 11.6489L9.43836 12.8849C9.37067 12.9238 9.29849 12.9534 9.2233 12.9736C8.99792 13.0334 8.75774 13.0014 8.55505 12.8849L5.63192 11.1967C5.49524 11.1178 5.41105 10.9717 5.41105 10.814V8.40294C5.41105 8.324 5.36886 8.25069 5.3008 8.21188L4.15724 7.55075C4.08899 7.51119 4.0048 7.51119 3.93636 7.55075C3.86811 7.59013 3.82611 7.66344 3.82611 7.74238V11.7296C3.82611 11.8874 3.9103 12.0328 4.04699 12.1123L8.55505 14.7163C8.68742 14.7926 8.8378 14.8327 8.99061 14.834H8.99361C9.01517 14.834 9.03674 14.8314 9.0583 14.8303C9.07499 14.8289 9.09149 14.8289 9.10817 14.8271C9.13105 14.8241 9.15374 14.8184 9.17586 14.8141C9.19142 14.8106 9.2068 14.8087 9.22161 14.8049C9.24617 14.7988 9.26961 14.7896 9.29305 14.7809C9.30655 14.7761 9.31949 14.7729 9.33186 14.768C9.36805 14.7532 9.40386 14.7359 9.4378 14.7163L13.3273 12.4696L13.944 12.1196C14.082 12.0414 14.1675 11.8948 14.1675 11.7358V6.26657C14.1675 6.18763 14.1459 6.11169 14.1077 6.0455Z" fill="#08D9D6"/>
<path d="M9.42735 1.95967C9.2961 1.88392 9.14835 1.84361 8.99685 1.84211C8.84592 1.84361 8.69742 1.88411 8.56617 1.95967L3.13392 5.09729C2.86148 5.25479 2.69348 5.54542 2.69348 5.86023V12.136C2.69348 12.4509 2.86129 12.7417 3.13392 12.8988L8.56617 16.0364C8.69929 16.1135 8.84948 16.1542 9.00285 16.1547C9.15623 16.1542 9.30717 16.1135 9.44029 16.037L14.8487 12.913C15.121 12.7559 15.2892 12.4651 15.2892 12.1501V10.3368C15.2886 10.2579 15.331 10.1853 15.3989 10.1457L16.5507 9.48086C16.6184 9.44148 16.7027 9.44148 16.7706 9.48086C16.8389 9.52042 16.8809 9.59298 16.8809 9.67192V13.0492C16.8801 13.1934 16.8445 13.3351 16.7766 13.462C16.7594 13.5453 16.669 13.6432 16.5407 13.7437C16.5383 13.7461 16.5345 13.7485 16.5315 13.751C16.2062 14.0043 15.6679 14.2655 15.5725 14.321L9.44029 17.8629C9.30285 17.9416 9.14648 17.9823 8.98823 17.9804H8.98129V17.9799C8.83542 17.9761 8.69254 17.9354 8.56617 17.8629L1.5531 13.8121C1.28067 13.655 1.11285 13.364 1.11285 13.0492V4.94767C1.11285 4.80629 1.13067 4.66211 1.19273 4.54023C1.20135 4.50854 1.28629 4.35292 1.46142 4.22486C1.52742 4.18042 1.64404 4.12061 1.75335 4.05742L8.54667 0.133982C8.68335 0.0550447 8.83917 0.0145447 8.99685 0.0164197C9.1551 0.0145447 9.31035 0.0550447 9.44704 0.133982L15.7155 3.75404C15.7296 3.76267 15.7407 3.77317 15.753 3.78311L15.8325 3.82848C16.0455 3.94154 16.3795 4.11386 16.5606 4.25148L16.5754 4.26254C16.5779 4.26442 16.5803 4.26629 16.5827 4.26779C16.5889 4.27323 16.5932 4.27848 16.5994 4.28411C16.6658 4.33961 16.7226 4.40504 16.7663 4.47817C16.7674 4.47911 16.7682 4.48042 16.7693 4.48154L16.7687 4.48173C16.842 4.60398 16.8809 4.74386 16.8809 4.88654V7.85298C16.8809 7.93173 16.839 8.00448 16.7706 8.04404L15.6188 8.70948C15.5511 8.74829 15.4667 8.74829 15.3989 8.70948C15.3306 8.66992 15.2886 8.59736 15.2886 8.51842V5.84317C15.2886 5.52817 15.1204 5.23698 14.8476 5.07967L9.42735 1.95948V1.95967Z" fill="#08D9D6"/>
<path d="M22.7 12.824L25.71 9.814C26.158 9.366 26.5127 8.918 26.774 8.47C27.0353 8.01267 27.166 7.50867 27.166 6.958V6.608C27.166 6.048 27.0073 5.60933 26.69 5.292C26.3727 4.97467 25.9387 4.816 25.388 4.816C25.136 4.816 24.912 4.83933 24.716 4.886C24.52 4.93267 24.3567 4.98867 24.226 5.054V5.11C24.3567 5.18467 24.4733 5.292 24.576 5.432C24.688 5.572 24.744 5.74 24.744 5.936C24.744 6.20667 24.66 6.44 24.492 6.636C24.324 6.82267 24.086 6.916 23.778 6.916C23.4793 6.916 23.2413 6.82267 23.064 6.636C22.896 6.44 22.812 6.18333 22.812 5.866C22.812 5.62333 22.882 5.39467 23.022 5.18C23.162 4.956 23.358 4.76467 23.61 4.606C23.862 4.438 24.1607 4.30733 24.506 4.214C24.8607 4.11133 25.2527 4.06 25.682 4.06C26.7087 4.06 27.5067 4.298 28.076 4.774C28.6547 5.24067 28.944 5.89867 28.944 6.748C28.944 7.15867 28.8787 7.532 28.748 7.868C28.6173 8.19467 28.44 8.50733 28.216 8.806C28.0013 9.09533 27.7493 9.37067 27.46 9.632C27.1707 9.89333 26.8673 10.1547 26.55 10.416L23.974 12.558V12.614H28.468V11.298H29.308V14H22.7V12.824ZM35.3365 14.168C34.7579 14.168 34.2912 14.042 33.9365 13.79C33.5912 13.538 33.3439 13.244 33.1945 12.908H33.1245L32.3405 14H31.6545V4.648L30.7025 4.466V3.85L33.2225 3.36V7.812H33.2925C33.4419 7.476 33.6845 7.182 34.0205 6.93C34.3565 6.678 34.7952 6.552 35.3365 6.552C35.7845 6.552 36.1905 6.64067 36.5545 6.818C36.9185 6.986 37.2265 7.23333 37.4785 7.56C37.7305 7.88667 37.9265 8.288 38.0665 8.764C38.2065 9.23067 38.2765 9.76267 38.2765 10.36C38.2765 10.9573 38.2065 11.494 38.0665 11.97C37.9265 12.4367 37.7305 12.8333 37.4785 13.16C37.2265 13.4867 36.9185 13.7387 36.5545 13.916C36.1905 14.084 35.7845 14.168 35.3365 14.168ZM34.8465 13.16C35.3785 13.16 35.8032 12.978 36.1205 12.614C36.4379 12.25 36.5965 11.746 36.5965 11.102V9.618C36.5965 8.974 36.4379 8.47 36.1205 8.106C35.8032 7.742 35.3785 7.56 34.8465 7.56C34.6319 7.56 34.4265 7.59267 34.2305 7.658C34.0439 7.714 33.8712 7.80267 33.7125 7.924C33.5632 8.04533 33.4419 8.19 33.3485 8.358C33.2645 8.526 33.2225 8.71733 33.2225 8.932V11.788C33.2225 12.0027 33.2645 12.194 33.3485 12.362C33.4419 12.53 33.5632 12.6747 33.7125 12.796C33.8712 12.9173 34.0439 13.0107 34.2305 13.076C34.4265 13.132 34.6319 13.16 34.8465 13.16ZM41.2778 5.362C40.9791 5.362 40.7458 5.278 40.5778 5.11C40.4098 4.93267 40.3258 4.70867 40.3258 4.438V4.354C40.3258 4.08333 40.4098 3.864 40.5778 3.696C40.7458 3.51867 40.9791 3.43 41.2778 3.43C41.5764 3.43 41.8098 3.51867 41.9778 3.696C42.1458 3.864 42.2298 4.08333 42.2298 4.354V4.438C42.2298 4.70867 42.1458 4.93267 41.9778 5.11C41.8098 5.278 41.5764 5.362 41.2778 5.362ZM39.5418 13.244H40.4938V7.84L39.5418 7.658V7.042L42.0618 6.552V13.244H43.0138V14H39.5418V13.244ZM47.4552 14.168C46.9045 14.168 46.4145 14.0747 45.9852 13.888C45.5652 13.7013 45.2105 13.44 44.9212 13.104C44.6318 12.768 44.4125 12.3667 44.2632 11.9C44.1138 11.4333 44.0392 10.92 44.0392 10.36C44.0392 9.76267 44.1278 9.23067 44.3052 8.764C44.4825 8.288 44.7298 7.88667 45.0472 7.56C45.3645 7.23333 45.7378 6.986 46.1672 6.818C46.6058 6.64067 47.0818 6.552 47.5952 6.552C48.3978 6.552 49.0232 6.72 49.4712 7.056C49.9285 7.392 50.1572 7.82133 50.1572 8.344C50.1572 8.67067 50.0685 8.92733 49.8912 9.114C49.7138 9.29133 49.4758 9.38 49.1772 9.38C48.8692 9.38 48.6358 9.296 48.4772 9.128C48.3185 8.95067 48.2392 8.73133 48.2392 8.47C48.2392 8.25533 48.2952 8.06867 48.4072 7.91C48.5192 7.75133 48.6638 7.63467 48.8412 7.56V7.49C48.7292 7.44333 48.5892 7.40133 48.4212 7.364C48.2532 7.31733 48.0432 7.294 47.7912 7.294C47.4832 7.294 47.2032 7.35 46.9512 7.462C46.6992 7.574 46.4845 7.73267 46.3072 7.938C46.1298 8.134 45.9898 8.372 45.8872 8.652C45.7938 8.932 45.7472 9.24467 45.7472 9.59V10.808C45.7472 11.508 45.9198 12.0633 46.2652 12.474C46.6105 12.8753 47.0818 13.076 47.6792 13.076C48.2392 13.076 48.6732 12.9547 48.9812 12.712C49.2985 12.4693 49.5412 12.1707 49.7092 11.816L50.3112 12.18C50.2272 12.4227 50.1058 12.6607 49.9472 12.894C49.7885 13.1273 49.5925 13.342 49.3592 13.538C49.1258 13.7247 48.8505 13.8787 48.5332 14C48.2158 14.112 47.8565 14.168 47.4552 14.168ZM55.104 14.168C54.5253 14.168 54.054 14.07 53.69 13.874C53.3353 13.678 53.0927 13.4447 52.962 13.174H52.892V14H51.618V11.13H52.892V11.76C52.892 12.2453 53.0507 12.6233 53.368 12.894C53.6947 13.1647 54.2127 13.3 54.922 13.3C55.6687 13.3 56.21 13.146 56.546 12.838C56.882 12.53 57.05 12.1193 57.05 11.606C57.05 11.1487 56.924 10.7987 56.672 10.556C56.42 10.304 55.9953 10.1033 55.398 9.954L54.684 9.786C54.2267 9.68333 53.816 9.548 53.452 9.38C53.088 9.212 52.78 9.00667 52.528 8.764C52.276 8.52133 52.08 8.23667 51.94 7.91C51.8093 7.58333 51.744 7.20067 51.744 6.762C51.744 6.36067 51.8187 5.99667 51.968 5.67C52.1173 5.334 52.3273 5.04933 52.598 4.816C52.878 4.57333 53.214 4.38667 53.606 4.256C53.998 4.12533 54.4413 4.06 54.936 4.06C55.496 4.06 55.944 4.15333 56.28 4.34C56.616 4.52667 56.8493 4.746 56.98 4.998H57.05V4.228H58.324V7.014H57.05V6.384C57.05 5.908 56.8867 5.54867 56.56 5.306C56.2427 5.054 55.7387 4.928 55.048 4.928C54.404 4.928 53.9233 5.07267 53.606 5.362C53.298 5.642 53.144 6.00133 53.144 6.44C53.144 6.90667 53.284 7.266 53.564 7.518C53.8533 7.77 54.3247 7.97533 54.978 8.134L55.636 8.274C56.5413 8.48867 57.2413 8.82933 57.736 9.296C58.2307 9.75333 58.478 10.3833 58.478 11.186C58.478 11.6153 58.3987 12.012 58.24 12.376C58.0907 12.74 57.8713 13.0573 57.582 13.328C57.302 13.5893 56.952 13.7947 56.532 13.944C56.112 14.0933 55.636 14.168 55.104 14.168ZM62.1665 14.112C61.6345 14.112 61.2612 14 61.0465 13.776C60.8319 13.552 60.7245 13.1973 60.7245 12.712V7.532H59.7725V6.72H60.0105C60.3559 6.72 60.5939 6.65933 60.7245 6.538C60.8552 6.41667 60.9625 6.23933 61.0465 6.006L61.4805 4.774H62.2925V6.72H64.0425V7.532H62.2925V13.202H64.0425V13.818C63.8839 13.8927 63.6272 13.958 63.2725 14.014C62.9272 14.0793 62.5585 14.112 62.1665 14.112ZM68.3731 13.342C68.9611 13.342 69.3905 13.16 69.6611 12.796C69.9411 12.432 70.0811 11.9467 70.0811 11.34V9.38C70.0811 8.77333 69.9411 8.288 69.6611 7.924C69.3905 7.56 68.9611 7.378 68.3731 7.378C67.7851 7.378 67.3511 7.56 67.0711 7.924C66.8005 8.288 66.6651 8.77333 66.6651 9.38V11.34C66.6651 11.9467 66.8005 12.432 67.0711 12.796C67.3511 13.16 67.7851 13.342 68.3731 13.342ZM68.3731 14.168C67.8598 14.168 67.3931 14.0793 66.9731 13.902C66.5531 13.7247 66.1938 13.4727 65.8951 13.146C65.5965 12.8193 65.3631 12.4227 65.1951 11.956C65.0365 11.48 64.9571 10.948 64.9571 10.36C64.9571 9.772 65.0365 9.24467 65.1951 8.778C65.3631 8.302 65.5965 7.90067 65.8951 7.574C66.1938 7.24733 66.5531 6.99533 66.9731 6.818C67.3931 6.64067 67.8598 6.552 68.3731 6.552C68.8865 6.552 69.3531 6.64067 69.7731 6.818C70.1931 6.99533 70.5525 7.24733 70.8511 7.574C71.1498 7.90067 71.3785 8.302 71.5371 8.778C71.7051 9.24467 71.7891 9.772 71.7891 10.36C71.7891 10.948 71.7051 11.48 71.5371 11.956C71.3785 12.4227 71.1498 12.8193 70.8511 13.146C70.5525 13.4727 70.1931 13.7247 69.7731 13.902C69.3531 14.0793 68.8865 14.168 68.3731 14.168ZM72.9969 13.244H73.9489V7.84L72.9969 7.658V7.042L75.4749 6.552V7.854H75.5449C75.6102 7.686 75.6895 7.52733 75.7829 7.378C75.8855 7.21933 76.0069 7.07933 76.1469 6.958C76.2962 6.83667 76.4642 6.73867 76.6509 6.664C76.8469 6.58933 77.0662 6.552 77.3089 6.552C77.7382 6.552 78.0789 6.65933 78.3309 6.874C78.5922 7.08867 78.7229 7.39667 78.7229 7.798C78.7229 8.11533 78.6389 8.36733 78.4709 8.554C78.3122 8.73133 78.0929 8.82 77.8129 8.82C77.5235 8.82 77.2949 8.74533 77.1269 8.596C76.9682 8.43733 76.8889 8.24133 76.8889 8.008C76.8889 7.84933 76.9215 7.71867 76.9869 7.616C77.0522 7.504 77.1315 7.43867 77.2249 7.42V7.378C77.1969 7.36867 77.1642 7.364 77.1269 7.364C77.0895 7.35467 77.0335 7.35 76.9589 7.35C76.7815 7.35 76.6042 7.39667 76.4269 7.49C76.2589 7.58333 76.1049 7.70467 75.9649 7.854C75.8342 7.994 75.7269 8.15733 75.6429 8.344C75.5589 8.52133 75.5169 8.69867 75.5169 8.876V13.244H76.7489V14H72.9969V13.244ZM82.865 14.168C82.3237 14.168 81.843 14.0793 81.423 13.902C81.003 13.7153 80.6483 13.454 80.359 13.118C80.0697 12.782 79.8457 12.3807 79.687 11.914C79.5377 11.4473 79.463 10.9293 79.463 10.36C79.463 9.78133 79.5423 9.25867 79.701 8.792C79.869 8.32533 80.0977 7.92867 80.387 7.602C80.6857 7.266 81.0357 7.00933 81.437 6.832C81.8477 6.64533 82.2957 6.552 82.781 6.552C83.2757 6.552 83.719 6.636 84.111 6.804C84.503 6.96267 84.8343 7.19133 85.105 7.49C85.385 7.78867 85.5997 8.148 85.749 8.568C85.8983 8.988 85.973 9.45467 85.973 9.968V10.346H81.157V10.794C81.157 11.522 81.339 12.0867 81.703 12.488C82.067 12.88 82.557 13.076 83.173 13.076C83.7143 13.076 84.1483 12.9593 84.475 12.726C84.811 12.4833 85.0583 12.1847 85.217 11.83L85.819 12.194C85.735 12.4367 85.609 12.6747 85.441 12.908C85.2823 13.1413 85.0817 13.3513 84.839 13.538C84.5963 13.7247 84.3117 13.8787 83.985 14C83.6583 14.112 83.285 14.168 82.865 14.168ZM81.157 9.604H84.349V9.45C84.349 8.778 84.2183 8.26 83.957 7.896C83.705 7.52267 83.313 7.336 82.781 7.336C82.2583 7.336 81.857 7.518 81.577 7.882C81.297 8.23667 81.157 8.75 81.157 9.422V9.604Z" fill="white"/>
</svg>
